<?xml version="1.0" encoding="UTF-8" standalone="no"?>
<svg width="1000" height="600" xmlns="http://www.w3.org/2000/svg">
  <g id="scalable-group" transform="scale(1)">
  <!-- Background -->
    <rect width="100%" height="100%" fill="#8FBC8F" />

    <!-- Point boxes -->
    <g fill="none" stroke="white" stroke-width="2">
        <rect x="200" y="150" width="100" height="100" />
        <rect x="300" y="150" width="100" height="100" />
        <rect x="400" y="150" width="100" height="100" />
        <rect x="500" y="150" width="100" height="100" />
        <rect x="600" y="150" width="100" height="100" />
        <rect x="700" y="150" width="100" height="100" />
    </g>

    <!-- Point numbers -->
    <g fill="black" font-size="30" text-anchor="middle" dy="0.3em">
        <text x="250" y="225">4</text>
        <text x="350" y="225">5</text>
        <text x="450" y="225">6</text>
        <text x="550" y="225">8</text>
        <text x="650" y="225">9</text>
        <text x="750" y="225">10</text>
    </g>

    <!-- Come line -->
    <rect x="150" y="320" width="700" height="100" fill="lightblue" />
    <text x="500" y="350" font-size="24" text-anchor="middle">COME</text>

    <!-- Pass line -->
    <rect x="150" y="450" width="700" height="100" fill="lightgreen" />
    <text x="500" y="480" font-size="24" text-anchor="middle">PASS</text>

    <!-- Add more sections and labels as needed -->
    <text id="current-point-text" x="400" y="30" font-size="24" text-anchor="middle" fill="white"></text>

    <circle id="on-off-indicator" cx="730" cy="30" r="20" fill="red" stroke="black" stroke-width="2" display="none"></circle>
    <text id="on-off-text" x="730" y="34" font-size="14" text-anchor="middle" fill="white" display="none">OFF</text>

    <!-- Die 1 -->
    <rect id="die1-rect" x="650" y="10" width="25" height="25" fill="white" stroke="black" stroke-width="2" />
    <text id="die1-text" x="662" y="28" font-size="18" text-anchor="middle" fill="black"></text>

    <!-- Die 2 -->
    <rect id="die2-rect" x="680" y="10" width="25" height="25" fill="white" stroke="black" stroke-width="2" />
    <text id="die2-text" x="692" y="28" font-size="18" text-anchor="middle" fill="black"></text>

    <g id="bets-group" stroke="white" stroke-width="2"></g>
  </g>
</svg>
